<?xml version="1.0" encoding="UTF-8" standalone="no"?>
<svg
   xmlns:dc="http://purl.org/dc/elements/1.1/"
   xmlns:cc="http://creativecommons.org/ns#"
   xmlns:rdf="http://www.w3.org/1999/02/22-rdf-syntax-ns#"
   xmlns:svg="http://www.w3.org/2000/svg"
   xmlns="http://www.w3.org/2000/svg"
   xmlns:sodipodi="http://sodipodi.sourceforge.net/DTD/sodipodi-0.dtd"
   xmlns:inkscape="http://www.inkscape.org/namespaces/inkscape"
   width="210mm"
   height="297mm"
   viewBox="0 0 210 297"
   version="1.1"
   id="svg774"
   inkscape:version="1.0.2-2 (e86c870879, 2021-01-15)"
   sodipodi:docname="FEC-blue-trans.svg">
  <defs
     id="defs768" />
  <sodipodi:namedview
     id="base"
     pagecolor="#ffffff"
     bordercolor="#666666"
     borderopacity="1.0"
     inkscape:pageopacity="0.0"
     inkscape:pageshadow="2"
     inkscape:zoom="0.35"
     inkscape:cx="400"
     inkscape:cy="560"
     inkscape:document-units="mm"
     inkscape:current-layer="layer1"
     inkscape:document-rotation="0"
     showgrid="false"
     inkscape:window-width="1267"
     inkscape:window-height="1040"
     inkscape:window-x="234"
     inkscape:window-y="1080"
     inkscape:window-maximized="0" />
  <metadata
     id="metadata771">
    <rdf:RDF>
      <cc:Work
         rdf:about="">
        <dc:format>image/svg+xml</dc:format>
        <dc:type
           rdf:resource="http://purl.org/dc/dcmitype/StillImage" />
        <dc:title></dc:title>
      </cc:Work>
    </rdf:RDF>
  </metadata>
  <g
     inkscape:label="Layer 1"
     inkscape:groupmode="layer"
     id="layer1">
    <g
       id="g766"
       transform="matrix(0.26458333,0,0,0.26458333,48.6038,-19.802858)">
      <path
         d="m 119.53529,824.10063 v 2.14667 h -5.69467 v 3.624 h 4.564 v 2.06933 h -4.564 v 5.69333 h -2.70133 v -13.53333 z"
         style="fill:#ffffff;fill-opacity:1;fill-rule:nonzero;stroke:none;stroke-width:1.33333"
         id="path152-3" />
      <path
         d="m 125.15369,826.93783 c -0.60133,0.35867 -1.07067,0.872 -1.40933,1.54267 -0.33867,0.672 -0.50667,1.45333 -0.50667,2.348 0,0.896 0.168,1.67866 0.50667,2.34933 0.33866,0.67067 0.808,1.184 1.40933,1.544 0.6,0.356 1.29733,0.53467 2.08933,0.53467 0.792,0 1.48934,-0.17867 2.08934,-0.53467 0.60133,-0.36 1.07066,-0.87333 1.40933,-1.544 0.33867,-0.67067 0.508,-1.45333 0.508,-2.34933 0,-0.89467 -0.16933,-1.676 -0.508,-2.348 -0.33867,-0.67067 -0.808,-1.184 -1.40933,-1.54267 -0.6,-0.35867 -1.29734,-0.53733 -2.08934,-0.53733 -0.792,0 -1.48933,0.17866 -2.08933,0.53733 m 5.53067,-2.14667 c 1.028,0.58667 1.84,1.408 2.43466,2.46267 0.59334,1.05467 0.892,2.24533 0.892,3.57467 0,1.32933 -0.29866,2.52533 -0.892,3.58533 -0.59466,1.06 -1.40666,1.88533 -2.43466,2.47333 -1.02934,0.58667 -2.176,0.88134 -3.44134,0.88134 -1.26533,0 -2.412,-0.29467 -3.44133,-0.88134 -1.028,-0.588 -1.84,-1.41333 -2.43333,-2.47333 -0.59467,-1.06 -0.892,-2.256 -0.892,-3.58533 0,-1.32934 0.29733,-2.52 0.892,-3.57467 0.59333,-1.05467 1.40533,-1.876 2.43333,-2.46267 1.02933,-0.588 2.176,-0.88133 3.44133,-0.88133 1.26534,0 2.412,0.29333 3.44134,0.88133"
         style="fill:#ffffff;fill-opacity:1;fill-rule:nonzero;stroke:none;stroke-width:1.33333"
         id="path156-1" />
      <path
         d="m 138.89596,830.50303 h 2.224 c 1.54667,0 2.32,-0.684 2.32,-2.05067 0,-0.652 -0.18933,-1.16 -0.56667,-1.52533 -0.376,-0.36267 -0.96133,-0.54533 -1.75333,-0.54533 h -2.224 z m 4.352,7.132 -3.16267,-5.272 h -1.18933 v 5.272 h -2.70267 v -13.53467 h 5.15734 c 1.572,0 2.76933,0.38267 3.59466,1.152 0.82267,0.76534 1.236,1.77467 1.236,3.02667 0,1.024 -0.28533,1.87867 -0.85333,2.57067 -0.56933,0.688 -1.38933,1.148 -2.46267,1.37866 l 3.37334,5.40667 z"
         style="fill:#ffffff;fill-opacity:1;fill-rule:nonzero;stroke:none;stroke-width:1.33333"
         id="path160-4" />
      <path
         d="m 150.99036,826.24783 v 3.508 h 4.79333 v 2.06933 h -4.79333 v 3.644 h 5.368 v 2.16534 h -8.07067 v -13.53334 h 8.07067 v 2.14667 z"
         style="fill:#ffffff;fill-opacity:1;fill-rule:nonzero;stroke:none;stroke-width:1.33333"
         id="path164-9" />
      <path
         d="m 170.15436,837.6345 h -2.70267 l -6.05866,-9.20133 v 9.20133 h -2.70267 v -13.53333 h 2.70267 l 6.05866,9.27866 v -9.27866 h 2.70267 z"
         style="fill:#ffffff;fill-opacity:1;fill-rule:nonzero;stroke:none;stroke-width:1.33333"
         id="path168-8" />
      <path
         d="m 181.65569,835.84157 c -0.34533,0.58267 -0.856,1.048 -1.53333,1.4 -0.67734,0.35067 -1.50134,0.52667 -2.47334,0.52667 -0.95866,0 -1.81466,-0.16267 -2.568,-0.488 -0.75466,-0.32667 -1.35866,-0.79734 -1.812,-1.41067 -0.45333,-0.612 -0.71333,-1.32933 -0.776,-2.14667 h 2.87467 c 0.0653,0.55067 0.28533,1.00667 0.66267,1.37067 0.376,0.36533 0.87733,0.54667 1.504,0.54667 0.56266,0 0.99333,-0.15067 1.29466,-0.44934 0.3,-0.30133 0.44934,-0.68666 0.44934,-1.16 0,-0.42133 -0.12134,-0.77066 -0.36267,-1.04533 -0.244,-0.27467 -0.55067,-0.496 -0.92133,-0.66133 -0.37067,-0.16667 -0.88134,-0.35734 -1.53334,-0.57467 -0.844,-0.28133 -1.53333,-0.55867 -2.07066,-0.83467 -0.536,-0.27466 -0.99334,-0.67333 -1.37067,-1.19866 -0.37733,-0.52267 -0.564,-1.20667 -0.564,-2.05067 0,-1.16267 0.41733,-2.07867 1.25467,-2.74933 0.836,-0.672 1.94533,-1.00667 3.32533,-1.00667 1.43067,0 2.572,0.34533 3.42267,1.03467 0.84933,0.69066 1.332,1.60933 1.44666,2.76 h -2.91333 c -0.076,-0.48667 -0.28133,-0.88534 -0.61333,-1.19734 -0.33334,-0.31333 -0.78534,-0.47066 -1.36134,-0.47066 -0.49866,0 -0.9,0.13066 -1.208,0.392 -0.30666,0.264 -0.45866,0.644 -0.45866,1.14133 0,0.396 0.11733,0.72667 0.35333,0.988 0.236,0.26133 0.536,0.476 0.9,0.64267 0.36533,0.16533 0.86,0.35066 1.48667,0.556 0.86933,0.30666 1.57466,0.59466 2.11866,0.86266 0.54267,0.26667 1.00534,0.67067 1.39067,1.20534 0.38267,0.53866 0.57333,1.24133 0.57333,2.11066 0,0.68934 -0.172,1.324 -0.51733,1.90667"
         style="fill:#ffffff;fill-opacity:1;fill-rule:nonzero;stroke:none;stroke-width:1.33333"
         id="path172-6" />
      <path
         d="m 187.10369,837.63383 h -2.70266 V 824.1005 h 2.70266 z"
         style="fill:#ffffff;fill-opacity:1;fill-rule:nonzero;stroke:none;stroke-width:1.33333"
         id="path174-3" />
      <path
         d="m 250.66903,837.63383 h -2.70267 V 824.1005 h 2.70267 z"
         style="fill:#ffffff;fill-opacity:1;fill-rule:nonzero;stroke:none;stroke-width:1.33333"
         id="path192-4" />
      <path
         d="m 303.29702,837.63383 h -2.70266 V 824.1005 h 2.70266 z"
         style="fill:#ffffff;fill-opacity:1;fill-rule:nonzero;stroke:none;stroke-width:1.33333"
         id="path210-2" />
      <path
         d="M 176.62236,847.3725 H 111.1397 v -0.844 h 65.48266 z"
         style="fill:#ffffff;fill-opacity:1;fill-rule:nonzero;stroke:none;stroke-width:1.33333"
         id="path248-5" />
      <path
         d="m 332.89036,847.3725 h -65.484 v -0.844 h 65.484 z"
         style="fill:#ffffff;fill-opacity:1;fill-rule:nonzero;stroke:none;stroke-width:1.33333"
         id="path250-6" />
      <path
         d="m 200.06063,825.26997 c 1.11067,0.868 1.84667,2.05067 2.204,3.54667 h -2.83733 c -0.29334,-0.72934 -0.75067,-1.304 -1.37067,-1.72534 -0.62,-0.42133 -1.364,-0.63333 -2.23333,-0.63333 -0.71467,0 -1.36,0.18 -1.936,0.53733 -0.576,0.35734 -1.02267,0.86934 -1.34134,1.53334 -0.32,0.664 -0.48,1.444 -0.48,2.33866 0,0.88134 0.16,1.65467 0.48,2.32 0.31867,0.66534 0.76534,1.17467 1.34134,1.53467 0.576,0.356 1.22133,0.53467 1.936,0.53467 0.86933,0 1.61333,-0.20934 2.23333,-0.632 0.62,-0.42267 1.07733,-0.996 1.37067,-1.72534 h 2.83733 c -0.35733,1.496 -1.09333,2.67734 -2.204,3.548 -1.112,0.868 -2.512,1.30134 -4.19867,1.30134 -1.29066,0 -2.43066,-0.28934 -3.42133,-0.872 -0.99067,-0.58 -1.75867,-1.39467 -2.30133,-2.444 -0.54267,-1.048 -0.81334,-2.236 -0.81334,-3.56534 0,-1.34266 0.27067,-2.53733 0.81334,-3.584 0.54266,-1.048 1.308,-1.864 2.292,-2.44533 0.98266,-0.58133 2.128,-0.872 3.43066,-0.872 1.68667,0 3.08667,0.436 4.19867,1.304"
         style="fill:#ffffff;fill-opacity:1;fill-rule:nonzero;stroke:none;stroke-width:1.33333"
         id="path178-6" />
      <path
         d="m 211.17849,826.24783 v 3.508 h 4.792 v 2.06933 h -4.792 v 3.644 h 5.368 v 2.16534 h -8.07067 v -13.53334 h 8.07067 v 2.14667 z"
         style="fill:#ffffff;fill-opacity:1;fill-rule:nonzero;stroke:none;stroke-width:1.33333"
         id="path182-0" />
      <path
         d="m 230.34249,837.6345 h -2.70267 l -6.05866,-9.20133 v 9.20133 h -2.70267 v -13.53333 h 2.70267 l 6.05866,9.27866 v -9.27866 h 2.70267 z"
         style="fill:#ffffff;fill-opacity:1;fill-rule:nonzero;stroke:none;stroke-width:1.33333"
         id="path186-3" />
      <path
         d="m 243.36529,825.18397 c 1.08667,0.81067 1.78267,1.908 2.08933,3.288 h -2.83733 c -0.268,-0.61467 -0.69333,-1.10267 -1.27333,-1.46667 -0.58267,-0.364 -1.26934,-0.548 -2.06134,-0.548 -0.78,0 -1.46933,0.18134 -2.07066,0.53734 -0.6,0.35866 -1.068,0.87066 -1.4,1.53466 -0.332,0.664 -0.49734,1.444 -0.49734,2.33867 0,1.41733 0.38,2.524 1.14,3.316 0.76134,0.792 1.8,1.18933 3.116,1.18933 0.97067,0 1.804,-0.28933 2.50134,-0.864 0.696,-0.57466 1.14666,-1.37333 1.35066,-2.396 h -4.58133 v -1.936 h 6.844 v 2.60667 c -0.19067,0.89467 -0.56667,1.72 -1.12133,2.47333 -0.556,0.75467 -1.284,1.35734 -2.18534,1.81067 -0.90133,0.45467 -1.93333,0.68133 -3.096,0.68133 -1.32933,0 -2.50133,-0.29066 -3.51733,-0.872 -1.016,-0.58133 -1.80267,-1.392 -2.35867,-2.43466 -0.556,-1.04267 -0.83333,-2.232 -0.83333,-3.57467 0,-1.34267 0.27733,-2.53333 0.83333,-3.576 0.556,-1.04133 1.33867,-1.85733 2.348,-2.444 1.00934,-0.58667 2.17867,-0.88133 3.508,-0.88133 1.64934,0 3.01734,0.40666 4.10267,1.21733"
         style="fill:#ffffff;fill-opacity:1;fill-rule:nonzero;stroke:none;stroke-width:1.33333"
         id="path190-0" />
      <path
         d="m 264.91809,837.6345 h -2.70267 l -6.05866,-9.20133 v 9.20133 h -2.70134 v -13.53333 h 2.70134 l 6.05866,9.27866 v -9.27866 h 2.70267 z"
         style="fill:#ffffff;fill-opacity:1;fill-rule:nonzero;stroke:none;stroke-width:1.33333"
         id="path196-5" />
      <path
         d="m 270.40636,826.24783 v 3.508 h 4.79333 v 2.06933 h -4.79333 v 3.644 h 5.368 v 2.16534 h -8.07067 v -13.53334 h 8.07067 v 2.14667 z"
         style="fill:#ffffff;fill-opacity:1;fill-rule:nonzero;stroke:none;stroke-width:1.33333"
         id="path200-9" />
      <path
         d="m 280.80929,826.24783 v 3.508 h 4.79333 v 2.06933 h -4.79333 v 3.644 h 5.368 v 2.16534 h -8.06933 v -13.53334 h 8.06933 v 2.14667 z"
         style="fill:#ffffff;fill-opacity:1;fill-rule:nonzero;stroke:none;stroke-width:1.33333"
         id="path204-2" />
      <path
         d="m 291.21302,830.50303 h 2.224 c 1.54667,0 2.31867,-0.684 2.31867,-2.05067 0,-0.652 -0.188,-1.16 -0.56534,-1.52533 -0.37733,-0.36267 -0.96133,-0.54533 -1.75333,-0.54533 h -2.224 z m 4.352,7.132 -3.164,-5.272 h -1.188 v 5.272 h -2.70267 v -13.53467 h 5.15734 c 1.572,0 2.76933,0.38267 3.59333,1.152 0.824,0.76534 1.23733,1.77467 1.23733,3.02667 0,1.024 -0.28533,1.87867 -0.85333,2.57067 -0.56933,0.688 -1.38933,1.148 -2.46267,1.37866 l 3.372,5.40667 z"
         style="fill:#ffffff;fill-opacity:1;fill-rule:nonzero;stroke:none;stroke-width:1.33333"
         id="path208-9" />
      <path
         d="m 317.54636,837.6345 h -2.70267 l -6.05866,-9.20133 v 9.20133 h -2.70267 v -13.53333 h 2.70267 l 6.05866,9.27866 v -9.27866 h 2.70267 z"
         style="fill:#ffffff;fill-opacity:1;fill-rule:nonzero;stroke:none;stroke-width:1.33333"
         id="path214-4" />
      <path
         d="m 330.57036,825.18397 c 1.08533,0.81067 1.78267,1.908 2.08933,3.288 h -2.83733 c -0.268,-0.61467 -0.69333,-1.10267 -1.27467,-1.46667 -0.58133,-0.364 -1.268,-0.548 -2.06133,-0.548 -0.77867,0 -1.46933,0.18134 -2.06933,0.53734 -0.60134,0.35866 -1.068,0.87066 -1.4,1.53466 -0.332,0.664 -0.49867,1.444 -0.49867,2.33867 0,1.41733 0.38133,2.524 1.14133,3.316 0.76,0.792 1.79867,1.18933 3.11467,1.18933 0.97067,0 1.80533,-0.28933 2.50267,-0.864 0.696,-0.57466 1.14666,-1.37333 1.35066,-2.396 h -4.58266 v -1.936 h 6.84533 v 2.60667 c -0.192,0.89467 -0.56667,1.72 -1.12267,2.47333 -0.556,0.75467 -1.28266,1.35734 -2.18533,1.81067 -0.90133,0.45467 -1.932,0.68133 -3.096,0.68133 -1.32933,0 -2.5,-0.29066 -3.51733,-0.872 -1.01467,-0.58133 -1.80134,-1.392 -2.35734,-2.43466 -0.556,-1.04267 -0.83333,-2.232 -0.83333,-3.57467 0,-1.34267 0.27733,-2.53333 0.83333,-3.576 0.556,-1.04133 1.33867,-1.85733 2.348,-2.444 1.00934,-0.58667 2.17867,-0.88133 3.508,-0.88133 1.64934,0 3.016,0.40666 4.10267,1.21733"
         style="fill:#ffffff;fill-opacity:1;fill-rule:nonzero;stroke:none;stroke-width:1.33333"
         id="path218-1" />
      <path
         d="m 191.20716,843.7829 c 0.632,0.49467 1.04933,1.168 1.25333,2.01733 h -1.61466 c -0.16667,-0.41466 -0.42534,-0.74133 -0.77734,-0.98133 -0.35333,-0.23867 -0.77733,-0.35867 -1.27066,-0.35867 -0.408,0 -0.77467,0.10134 -1.10134,0.304 -0.32666,0.20534 -0.58133,0.49467 -0.764,0.87334 -0.18133,0.37733 -0.272,0.82133 -0.272,1.33066 0,0.50134 0.0907,0.94134 0.272,1.31867 0.18267,0.37733 0.43734,0.668 0.764,0.872 0.32667,0.20267 0.69334,0.30533 1.10134,0.30533 0.49333,0 0.91733,-0.12133 1.27066,-0.36 0.352,-0.23866 0.61067,-0.568 0.77734,-0.98133 h 1.61466 c -0.204,0.85067 -0.62133,1.52133 -1.25333,2.01733 -0.63333,0.49467 -1.428,0.74134 -2.388,0.74134 -0.73333,0 -1.38267,-0.16667 -1.94533,-0.496 -0.564,-0.332 -1,-0.79467 -1.30934,-1.39067 -0.308,-0.596 -0.46266,-1.272 -0.46266,-2.02667 0,-0.76533 0.15466,-1.444 0.46266,-2.04133 0.30934,-0.59467 0.74267,-1.05867 1.30267,-1.38933 0.56,-0.33067 1.21067,-0.496 1.952,-0.496 0.96,0 1.75467,0.248 2.388,0.74133"
         style="fill:#ffffff;fill-opacity:1;fill-rule:nonzero;stroke:none;stroke-width:1.33333"
         id="path222-6" />
      <path
         d="m 199.14463,844.7321 c -0.34267,0.20267 -0.60933,0.496 -0.80133,0.87733 -0.19334,0.38134 -0.28934,0.82667 -0.28934,1.33467 0,0.50933 0.096,0.95467 0.28934,1.33733 0.192,0.38134 0.45866,0.67334 0.80133,0.87734 0.34133,0.20266 0.73733,0.30533 1.188,0.30533 0.45067,0 0.84667,-0.10267 1.188,-0.30533 0.34267,-0.204 0.60933,-0.496 0.80133,-0.87734 0.19334,-0.38266 0.28934,-0.828 0.28934,-1.33733 0,-0.508 -0.096,-0.95333 -0.28934,-1.33467 -0.192,-0.38133 -0.45866,-0.67466 -0.80133,-0.87733 -0.34133,-0.20267 -0.73733,-0.30533 -1.188,-0.30533 -0.45067,0 -0.84667,0.10266 -1.188,0.30533 m 3.14533,-1.22133 c 0.584,0.33466 1.04667,0.80133 1.384,1.40133 0.33867,0.59867 0.50667,1.27733 0.50667,2.032 0,0.75733 -0.168,1.436 -0.50667,2.04 -0.33733,0.604 -0.8,1.072 -1.384,1.40667 -0.58533,0.33466 -1.23733,0.50133 -1.95733,0.50133 -0.72,0 -1.372,-0.16667 -1.95733,-0.50133 -0.584,-0.33467 -1.04667,-0.80267 -1.384,-1.40667 -0.33867,-0.604 -0.50667,-1.28267 -0.50667,-2.04 0,-0.75467 0.168,-1.43333 0.50667,-2.032 0.33733,-0.6 0.8,-1.06667 1.384,-1.40133 0.58533,-0.33467 1.23733,-0.50134 1.95733,-0.50134 0.72,0 1.372,0.16667 1.95733,0.50134"
         style="fill:#ffffff;fill-opacity:1;fill-rule:nonzero;stroke:none;stroke-width:1.33333"
         id="path226-4" />
      <path
         d="m 216.87049,843.20477 v 7.61067 h -1.52667 v -5.30934 l -1.95066,5.30934 h -1.33067 l -1.952,-5.288 v 5.288 h -1.53733 v -7.61067 h 1.86533 l 2.31067,5.724 2.268,-5.724 z"
         style="fill:#ffffff;fill-opacity:1;fill-rule:nonzero;stroke:none;stroke-width:1.33333"
         id="path230-4" />
      <path
         d="m 225.59316,845.54983 c 0,-0.38533 -0.10533,-0.68 -0.316,-0.88267 -0.21067,-0.204 -0.556,-0.30666 -1.036,-0.30666 h -1.10133 v 2.36666 h 1.10133 c 0.90133,0 1.352,-0.39333 1.352,-1.17733 m -2.45333,2.41067 v 2.85466 h -1.53734 v -7.69733 h 2.80267 c 0.908,0 1.59333,0.22 2.05467,0.65467 0.46133,0.436 0.692,1.028 0.692,1.77733 0,0.73333 -0.23734,1.31867 -0.71334,1.75467 -0.47733,0.43733 -1.15466,0.656 -2.03333,0.656 z"
         style="fill:#ffffff;fill-opacity:1;fill-rule:nonzero;stroke:none;stroke-width:1.33333"
         id="path234-9" />
      <path
         d="m 235.01049,848.10063 -1.13333,-3.24933 -1.13467,3.24933 z m 0.41467,1.16667 h -3.08534 l -0.54533,1.548 h -1.624 l 2.83467,-7.61067 h 1.75466 l 2.824,7.61067 h -1.624 z"
         style="fill:#ffffff;fill-opacity:1;fill-rule:nonzero;stroke:none;stroke-width:1.33333"
         id="path238-0" />
      <path
         d="m 248.13022,850.81543 h -1.53733 l -3.44534,-5.23333 v 5.23333 h -1.53733 v -7.69733 h 1.53733 l 3.44534,5.27733 v -5.27733 h 1.53733 z"
         style="fill:#ffffff;fill-opacity:1;fill-rule:nonzero;stroke:none;stroke-width:1.33333"
         id="path242-5" />
      <path
         d="m 258.92782,843.11757 -2.60667,5.00533 v 2.692 h -1.54666 v -2.692 l -2.61734,-5.00533 h 1.76667 l 1.63467,3.36933 1.636,-3.36933 z"
         style="fill:#ffffff;fill-opacity:1;fill-rule:nonzero;stroke:none;stroke-width:1.33333"
         id="path246-4" />
      <path
         d="m 247.20062,794.7061 v 15.04133 h -62.71067 v -80.98666 h 61.208 v 15.04133 h -42.576 v 17.58533 h 37.596 v 14.58 h -37.596 v 18.73867 z"
         style="fill:#ffffff;fill-opacity:1;fill-rule:nonzero;stroke:none;stroke-width:1.33333"
         id="path254-5" />
      <path
         d="m 277.06516,805.75557 c -6.672,-3.584 -11.91333,-8.55867 -15.73333,-14.92267 -3.816,-6.36533 -5.72667,-13.55733 -5.72667,-21.57866 0,-8.02134 1.91067,-15.21334 5.72667,-21.57867 3.82,-6.36267 9.06133,-11.33733 15.73333,-14.92266 6.672,-3.584 14.172,-5.38267 22.50533,-5.38267 7.016,0 13.36267,1.23733 19.02934,3.70267 5.672,2.47333 10.43333,6.02266 14.29066,10.64799 l -12.032,11.108 c -5.48266,-6.324 -12.26666,-9.488 -20.364,-9.488 -5.016,0 -9.488,1.10134 -13.42133,3.29467 -3.93333,2.20133 -6.99733,5.264 -9.19867,9.19867 -2.2,3.93333 -3.29333,8.40933 -3.29333,13.42 0,5.016 1.09333,9.488 3.29333,13.42 2.20134,3.93466 5.26534,6.99733 9.19867,9.19866 3.93333,2.2 8.40533,3.296 13.42133,3.296 8.09734,0 14.88134,-3.19466 20.364,-9.60133 l 12.032,11.108 c -3.85733,4.70267 -8.64266,8.29333 -14.35066,10.76 -5.70667,2.46533 -12.072,3.70267 -19.08667,3.70267 -8.25733,0 -15.716,-1.79334 -22.388,-5.38267"
         style="fill:#ffffff;fill-opacity:1;fill-rule:nonzero;stroke:none;stroke-width:1.33333"
         id="path258-8" />
      <path
         d="m 141.67983,776.42357 h 25.68667 v -15.036 h -34.89734 z"
         style="fill:#e30613;fill-opacity:1;fill-rule:nonzero;stroke:none;stroke-width:1.33333"
         id="path262-7" />
      <path
         d="m 111.13943,728.76077 v 80.98666 h 18.744 V 743.8021 h 42.464 v -15.04133 z"
         style="fill:#ffffff;fill-opacity:1;fill-rule:nonzero;stroke:none;stroke-width:1.33333"
         id="path266-1" />
    </g>
  </g>
</svg>
